<svg id="Layer_24" data-name="Layer 24" xmlns="http://www.w3.org/2000/svg" viewBox="0 0 24 24"><defs><style>.cls-1{fill:none;stroke:#565656;stroke-linecap:round;stroke-miterlimit:10;stroke-width:0.75px;}</style></defs><title>HDMI</title><polygon class="cls-1" points="2.43 7.49 3.44 6.49 20.53 6.49 21.53 7.49 21.55 16.51 20.55 17.51 3.46 17.51 2.45 16.51 2.43 7.49"/><polygon class="cls-1" points="4.03 8.7 19.97 8.7 19.95 13.79 16.96 13.81 15.51 15.49 8.46 15.49 7 13.81 4.02 13.81 4.03 8.7"/><line class="cls-1" x1="6.02" y1="10.48" x2="17.98" y2="10.48"/><line class="cls-1" x1="7.12" y1="10.48" x2="7.12" y2="11.72"/><line class="cls-1" x1="9.45" y1="10.48" x2="9.45" y2="11.72"/><line class="cls-1" x1="11.98" y1="10.48" x2="11.98" y2="11.72"/><line class="cls-1" x1="14.43" y1="10.48" x2="14.43" y2="11.72"/><line class="cls-1" x1="16.83" y1="10.48" x2="16.83" y2="11.72"/></svg>