<svg id="Layer_40" data-name="Layer 40" xmlns="http://www.w3.org/2000/svg" viewBox="0 0 20.22 20.18"><defs><style>.cls-1{fill:none;stroke:#565656;stroke-linecap:round;stroke-miterlimit:10;stroke-width:0.5px;}</style></defs><title>color-01</title><polygon class="cls-1" points="19.82 1.74 19.25 0.75 18.27 0.29 16.78 0.59 8.98 8.39 8.85 10.66 7.8 11.66 8.46 12.28 9.47 11.29 11.71 11.03 19.53 3.22 19.82 1.74"/><polyline class="cls-1" points="18.69 6.07 16.38 3.76 14.07 1.45"/><line class="cls-1" x1="15.49" y1="7.26" x2="10.92" y2="6.57"/><path class="cls-1" d="M6.37,6.37a7.87,7.87,0,0,1,3.91-2.15" transform="translate(-1.79 -2.03)"/><path class="cls-1" d="M4.14,13.29A7.83,7.83,0,0,1,4,12,7.93,7.93,0,0,1,5,8.27" transform="translate(-1.79 -2.03)"/><path class="cls-1" d="M8.69,19.25a8,8,0,0,1-3.94-3.94" transform="translate(-1.79 -2.03)"/><path class="cls-1" d="M15.94,18.93A8,8,0,0,1,12,20a8.28,8.28,0,0,1-1.23-.1" transform="translate(-1.79 -2.03)"/><path class="cls-1" d="M19.83,13.83a6.47,6.47,0,0,1-2.2,3.8" transform="translate(-1.79 -2.03)"/><path class="cls-1" d="M5,5A9.87,9.87,0,0,1,9.85,2.28" transform="translate(-1.79 -2.03)"/><path class="cls-1" d="M2.16,13.55A10,10,0,0,1,3.23,7.27" transform="translate(-1.79 -2.03)"/><path class="cls-1" d="M7.66,21A10,10,0,0,1,3,16.34" transform="translate(-1.79 -2.03)"/><path class="cls-1" d="M17.1,20.56A9.93,9.93,0,0,1,12,22a11.19,11.19,0,0,1-1.43-.1" transform="translate(-1.79 -2.03)"/><path class="cls-1" d="M21.77,14.31A8.48,8.48,0,0,1,19.08,19" transform="translate(-1.79 -2.03)"/><line class="cls-1" x1="3.17" y1="2.93" x2="4.58" y2="4.34"/><line class="cls-1" x1="15.84" y1="15.61" x2="17.25" y2="17.01"/><line class="cls-1" x1="3.17" y1="6.25" x2="1.44" y2="5.25"/><line class="cls-1" x1="6.9" y1="17.22" x2="5.87" y2="18.94"/><line class="cls-1" x1="2.95" y1="13.26" x2="1.25" y2="14.32"/><line class="cls-1" x1="0.37" y1="11.52" x2="2.24" y2="11.28"/><line class="cls-1" x1="14.14" y1="16.9" x2="15.3" y2="18.53"/><line class="cls-1" x1="8.98" y1="17.84" x2="8.78" y2="19.83"/><line class="cls-1" x1="18.02" y1="11.88" x2="19.97" y2="12.28"/><line class="cls-1" x1="8.05" y1="0.25" x2="8.49" y2="2.19"/></svg>